<svg xmlns="http://www.w3.org/2000/svg" xmlns:xlink="http://www.w3.org/1999/xlink" viewBox="0 0 1365.5 729.66"><defs><style>.cls-1{fill:url(#linear-gradient);}</style><linearGradient id="linear-gradient" x1="1008.54" y1="164.51" x2="72.94" y2="723.82" gradientUnits="userSpaceOnUse"><stop offset="0" stop-color="#2aa9ff"/><stop offset="0.19" stop-color="#29affa"/><stop offset="0.43" stop-color="#25bfec"/><stop offset="0.7" stop-color="#1ed9d5"/><stop offset="0.99" stop-color="#15feb4"/><stop offset="1" stop-color="#15ffb3"/></linearGradient></defs><title>bg</title><g id="Layer_2" data-name="Layer 2"><g id="Layer_1-2" data-name="Layer 1"><path class="cls-1" d="M1059.39,142C831.3,145,682.25,0,682.25,0H0V703.23a294.68,294.68,0,0,1,68.52-8c53,0,97.94,32.4,148.46,31.72,21.62-.3,41.74-10.23,62.12-17.46a260.67,260.67,0,0,1,186.15,5.26c13.89,5.83,27.72,13,42.76,13.74,18.31.9,35.5-7.8,52.52-14.58,66.55-26.52,143.75-25,209.22,4,12.06,5.36,24.28,11.74,37.48,11.75s25.56-6.39,37.69-11.77c65.78-29.19,143.38-30.54,210.14-3.66,14.47,5.83,28.87,13,44.44,13.86,49.23,2.67,98-32.9,151-32.9a293.11,293.11,0,0,1,115,23.35V384S1287.47,139,1059.39,142Z"/></g></g></svg>